<?xml version="1.0" encoding="UTF-8"?>
<svg width="200px" height="200px" viewBox="0 0 200 200" version="1.1" xmlns="http://www.w3.org/2000/svg" xmlns:xlink="http://www.w3.org/1999/xlink">
    <!-- Generator: Sketch 51.3 (57544) - http://www.bohemiancoding.com/sketch -->
    <title>iconmonstr-puzzle-icon</title>
    <desc>Created with Sketch.</desc>
    <defs></defs>
    <g id="Page-1" stroke="none" stroke-width="1" fill="none" fill-rule="evenodd">
        <g id="iconmonstr-puzzle-icon" fill="#000000" fill-rule="nonzero">
            <path d="M20.6582524,150 C28.8087379,150 31.5674757,145.630097 34.8873786,142.317961 C41.6665049,135.514078 50,138.41165 50,149.373786 L50,200 L100.626214,200 C111.58835,200 114.485922,191.666505 107.686408,184.887864 C104.369903,181.567476 100,178.808738 100,170.654369 C100,161.596602 109.236893,150 125,150 C140.763107,150 150,161.596602 150,170.654369 C150,178.808738 145.630097,181.567476 142.317961,184.887864 C135.514078,191.666505 138.41165,200 149.373786,200 L200,200 L200,149.373786 C200,138.41165 191.666505,135.514078 184.887864,142.317961 C181.567476,145.630097 178.808738,150 170.654369,150 C161.596602,150 150,140.763107 150,125 C150,109.236893 161.596602,100 170.654369,100 C178.808738,100 181.567476,104.369903 184.887864,107.686408 C191.666505,114.485922 200,111.58835 200,100.626214 L200,50 L149.373786,50 C138.41165,50 135.514078,41.6665049 142.317961,34.8878641 C145.630097,31.5674757 150,28.8087379 150,20.6587379 C150,11.5966019 140.763107,0 125,0 C109.236893,0 100,11.5966019 100,20.6582524 C100,28.8087379 104.369903,31.5674757 107.686408,34.8873786 C114.485922,41.6665049 111.58835,50 100.626214,50 L50,50 L50,100.626214 C50,111.58835 41.6665049,114.485922 34.8878641,107.686408 C31.5674757,104.369903 28.8087379,100 20.6582524,100 C11.5966019,100 0,109.236893 0,125 C0,140.763107 11.5966019,150 20.6582524,150 Z" id="puzzle-1"></path>
        </g>
    </g>
</svg>